<svg width="304" height="55" viewBox="0 0 304 55" fill="none" xmlns="http://www.w3.org/2000/svg">
<path d="M1 17.8092L8.23542 20.9923C15.3135 24.0163 29.7844 30.0643 44.0979 24.0163C58.5687 17.8092 72.8823 -0.493924 87.3531 1.09765C101.667 2.53006 115.98 24.0163 130.451 37.7038M130.451 37.7038C144.765 51.5505 159.235 57.5984 173.549 48.3673C188.02 39.2954 202.333 14.7852 216.647 8.73719M130.451 37.7038C144.765 51.5505 160.808 59.19 175.122 49.9589C189.593 40.8869 202.333 14.7852 216.647 8.73719M216.647 8.73719C231.118 2.53006 245.431 14.7852 259.902 17.8092C274.216 20.9923 288.686 14.7852 295.765 11.7612L303 8.73719" stroke="url(#paint0_linear)"/>
<defs>
<linearGradient id="paint0_linear" x1="-6.5" y1="14.5" x2="298" y2="10.5" gradientUnits="userSpaceOnUse">
<stop stop-color="white"/>
<stop offset="1" stop-color="white" stop-opacity="0"/>
</linearGradient>
</defs>
</svg>
