<?xml version="1.0" encoding="UTF-8"?>
<svg width="388px" height="127px" viewBox="0 0 388 127" version="1.1" xmlns="http://www.w3.org/2000/svg" xmlns:xlink="http://www.w3.org/1999/xlink">
    <title>wave</title>
    <g id="Page-1" stroke="none" stroke-width="1" fill="none" fill-rule="evenodd">
        <g id="wave" fill="#D60027" fill-rule="nonzero">
            <path d="M0,28.4286 C5.52063626,28.8807548 9.8352401,26.6604718 12.9438115,21.7677511 C17.6066687,14.42867 27.1483,0.4287 37.3383,1.58807 C47.4125,2.83494 57.4867,19.0224 67.6766,30.7693 C77.7508,42.4286 87.825,49.4286 98.015,41.2692 C108.066,33.0224 118.163,9.83493 128.353,9.7693 C138.381,9.83493 148.502,33.0224 158.692,35.4286 C168.696,37.8349 178.84,19.0224 188.798,16.76929 C199.011,14.42867 209.178,28.4286 219.137,33.088 C229.327,37.8349 239.517,33.0224 249.475,31.9286 C259.642,30.8349 269.855,33.0224 279.813,30.7693 C289.957,28.4286 299.962,21.4287 310.152,14.42867 C320.272,7.428684 335.72967,-0.312282244 348.326797,1.58807 C360.33789,3.40001555 367.931483,13.2123027 376.463428,24.1697477 C378.678396,27.014397 382.498071,28.4286 388,28.4286 L388,126.004 L362.951,126.004 C357.903,126.004 320.342,126.004 310.152,126.004 C300.077,126.004 290.003,126.004 279.813,126.004 C269.739,126.004 259.665,126.004 249.475,126.004 C239.424,126.004 229.327,126.004 219.137,126.004 C209.109,126.004 198.988,126.004 188.798,126.004 C178.794,126.004 168.65,126.004 158.692,126.004 C148.478,126.004 138.312,126.004 128.353,126.004 C118.163,126.004 107.9733,126.004 98.015,126.004 C87.8481,126.004 77.635,126.004 67.6766,126.004 C57.533,126.004 47.5283,126.004 37.3383,126.004 C27.2178,126.004 17.18997,126.004 12.09498,126.004 L0,126.004 L0,28.4286 Z" id="Path"></path>
            <path d="M0,28.4286 C5.52063626,28.8807548 9.8352401,26.6604718 12.9438115,21.7677511 C17.6066687,14.42867 27.1483,0.4287 37.3383,1.58807 C47.4125,2.83494 57.4867,19.0224 67.6766,30.7693 C77.7508,42.4286 87.825,49.4286 98.015,41.2692 C108.066,33.0224 118.163,9.83493 128.353,9.7693 C138.381,9.83493 148.502,33.0224 158.692,35.4286 C168.696,37.8349 178.84,19.0224 188.798,16.76929 C199.011,14.42867 209.178,28.4286 219.137,33.088 C229.327,37.8349 239.517,33.0224 249.475,31.9286 C259.642,30.8349 269.855,33.0224 279.813,30.7693 C289.957,28.4286 299.962,21.4287 310.152,14.42867 C320.272,7.428684 335.72967,-0.312282244 348.326797,1.58807 C360.33789,3.40001555 367.931483,13.2123027 376.463428,24.1697477 C378.678396,27.014397 382.498071,28.4286 388,28.4286 L388,126.004 L362.951,126.004 C357.903,126.004 320.342,126.004 310.152,126.004 C300.077,126.004 290.003,126.004 279.813,126.004 C269.739,126.004 259.665,126.004 249.475,126.004 C239.424,126.004 229.327,126.004 219.137,126.004 C209.109,126.004 198.988,126.004 188.798,126.004 C178.794,126.004 168.65,126.004 158.692,126.004 C148.478,126.004 138.312,126.004 128.353,126.004 C118.163,126.004 107.9733,126.004 98.015,126.004 C87.8481,126.004 77.635,126.004 67.6766,126.004 C57.533,126.004 47.5283,126.004 37.3383,126.004 C27.2178,126.004 17.18997,126.004 12.09498,126.004 L0,126.004 L0,28.4286 Z" id="Path"></path>
        </g>
    </g>
</svg>