<svg width="344" height="118" viewBox="0 0 344 118" fill="none" xmlns="http://www.w3.org/2000/svg">
<path d="M-1 20.4286L4.04867 13.4287C9.09733 6.42867 19.1483 -7.5713 29.3383 -6.41193C39.4125 -5.16506 49.4867 11.0224 59.6766 22.7693C69.7508 34.4286 79.825 41.4286 90.015 33.2692C100.066 25.0224 110.163 1.83493 120.353 1.7693C130.381 1.83493 140.502 25.0224 150.692 27.4286C160.696 29.8349 170.84 11.0224 180.798 8.76929C191.011 6.42867 201.178 20.4286 211.137 25.088C221.327 29.8349 231.517 25.0224 241.475 23.9286C251.642 22.8349 261.855 25.0224 271.813 22.7693C281.957 20.4286 291.962 13.4287 302.152 6.42867C312.272 -0.571316 349.81 -7.5713 354.905 -11.0713L360 -14.5713V118.004H354.951C349.903 118.004 312.342 118.004 302.152 118.004C292.077 118.004 282.003 118.004 271.813 118.004C261.739 118.004 251.665 118.004 241.475 118.004C231.424 118.004 221.327 118.004 211.137 118.004C201.109 118.004 190.988 118.004 180.798 118.004C170.794 118.004 160.65 118.004 150.692 118.004C140.478 118.004 130.312 118.004 120.353 118.004C110.163 118.004 99.9733 118.004 90.015 118.004C79.8481 118.004 69.635 118.004 59.6766 118.004C49.533 118.004 39.5283 118.004 29.3383 118.004C19.2178 118.004 9.18997 118.004 4.09498 118.004H-1V20.4286Z" fill="#D60027"/>
</svg>
