<svg width="170" height="170" viewBox="0 0 170 170" fill="none" xmlns="http://www.w3.org/2000/svg">
<rect x="84.8535" y="0.707107" width="119" height="119" transform="rotate(45 84.8535 0.707107)" stroke="white"/>
<path d="M53.3377 100V67.45L46.5877 69.75L45.8877 67.7L53.8877 64.75H55.8877V100H53.3377ZM76.8857 100.5C73.1524 100.5 70.0524 99.5833 67.5857 97.75C65.1191 95.8833 63.8857 93.4833 63.8857 90.55C63.8857 88.5833 64.6024 86.85 66.0357 85.35C67.4691 83.8167 69.3357 82.6667 71.6357 81.9C67.2691 80.1333 65.0857 77.3833 65.0857 73.65C65.0857 71.0167 66.2691 68.8333 68.6357 67.1C71.0024 65.3667 73.7524 64.5 76.8857 64.5C80.0191 64.5 82.7691 65.3667 85.1357 67.1C87.5024 68.8333 88.6857 71.05 88.6857 73.75C88.6857 77.4167 86.5024 80.1333 82.1357 81.9C84.4357 82.6667 86.3024 83.8167 87.7357 85.35C89.1691 86.85 89.8857 88.6167 89.8857 90.65C89.8857 93.5167 88.6357 95.8833 86.1357 97.75C83.6691 99.5833 80.5857 100.5 76.8857 100.5ZM69.3857 96C71.2524 97.4333 73.7524 98.15 76.8857 98.15C80.0191 98.15 82.5191 97.4333 84.3857 96C86.2524 94.5333 87.1857 92.75 87.1857 90.65C87.1857 88.4833 86.1857 86.7 84.1857 85.3C82.1857 83.8667 79.7524 83.15 76.8857 83.15C73.9857 83.15 71.5357 83.8667 69.5357 85.3C67.5691 86.7333 66.5857 88.55 66.5857 90.75C66.5857 92.8167 67.5191 94.5667 69.3857 96ZM70.4357 78.95C72.2024 80.2833 74.3524 80.95 76.8857 80.95C79.4191 80.95 81.5691 80.2833 83.3357 78.95C85.1024 77.5833 85.9857 75.8167 85.9857 73.65C85.9857 71.6833 85.1024 70.0667 83.3357 68.8C81.6024 67.5 79.4524 66.85 76.8857 66.85C74.3191 66.85 72.1524 67.5 70.3857 68.8C68.6524 70.1 67.7857 71.75 67.7857 73.75C67.7857 75.85 68.6691 77.5833 70.4357 78.95ZM107.38 94.35V83.6H96.5299V81.2H107.38V70.45H109.88V81.2H120.73V83.6H109.88V94.35H107.38Z" fill="white"/>
</svg>
